# ProBuilder 4.5.2
# https://unity3d.com/unity/features/worldbuilding/probuilder
# 21/06/2022 20:07:55

mtllib ./Tree_3.mtl
o Tree 3

g Tree 3
v 0.2130077 0.2643338 0.02313024
v 0.2185268 0.2605962 0.02313024
v 0.2129615 0.258415 0.0351201
v 0.2185674 0.2547042 0.02313024
v 0.2130077 0.2514943 0.02313024
v 0.207448 0.2547042 0.02313024
v 0.207448 0.261124 0.02313024
v 0.2129988 0.2690511 0.01564584
v 0.2226182 0.2634973 0.01564584
v 0.2129988 0.2579435 0.02859739
v 0.2226182 0.2523898 0.01564584
v 0.2129988 0.246836 0.01564584
v 0.2033793 0.2523898 0.01564584
v 0.2033793 0.2634973 0.01564584
v 0.212973 0.2707601 0.00882538
v 0.2240829 0.2643458 0.00882538
v 0.212973 0.2579315 0.02539367
v 0.2240829 0.2515172 0.00882538
v 0.212973 0.2451029 0.00882538
v 0.2018631 0.2515172 0.00882538
v 0.2018631 0.2643458 0.00882538
v 0.2130319 0.2595881 0.001060198
v 0.2140473 0.2591675 0.001060198
v 0.2140473 0.2591675 0.01276488
v 0.2130319 0.2595881 0.01276488
v 0.2144679 0.2581521 0.001060198
v 0.2144679 0.2581521 0.01276488
v 0.2140473 0.2571367 0.001060198
v 0.2140473 0.2571367 0.01276488
v 0.2130319 0.2567161 0.001060198
v 0.2130319 0.2567161 0.01276488
v 0.2120166 0.2571367 0.001060198
v 0.2120166 0.2571367 0.01276488
v 0.211596 0.2581521 0.001060198
v 0.211596 0.2581521 0.01276488
v 0.2120166 0.2591675 0.001060198
v 0.2120166 0.2591675 0.01276488

vt 0.5703125 0.5382031
vt 0.4768028 0.4988306

vn 0.5186601 0.7658585 0.380069
vn 0.9065974 0.006247952 0.4219504
vn 0.446887 -0.7740371 0.448507
vn -0.4475768 -0.7752319 0.4457472
vn -0.9085449 0 0.4177872
vn -0.4600677 0.7968616 0.3915982
vn 0.401398 0.6952405 0.5962552
vn 0.8027954 0 0.5962546
vn 0.401398 -0.6952405 0.5962552
vn -0.401397 -0.6952409 0.5962555
vn -0.8027945 0 0.5962558
vn -0.401397 0.6952409 0.5962555
vn 0.4152797 0.719285 0.5569308
vn 0.8305585 0 0.5569314
vn 0.4152788 -0.719285 0.5569315
vn -0.4152788 -0.719285 0.5569315
vn -0.8305585 0 0.5569314
vn -0.4152797 0.719285 0.5569308
vn 0.3826775 0.923882 0
vn 0.9238756 0.3826931 0
vn 0.9238676 -0.3827122 0
vn 0.3826775 -0.923882 0
vn -0.3826679 -0.9238859 0
vn -0.923882 -0.3826775 0
vn -0.9238899 0.3826583 0
vn -0.3826679 0.9238859 0
vn 0 0 -1

usemtl Park
f 3/1/1 2/1/1 1/1/1
f 3/1/2 4/1/2 2/1/2
f 3/1/3 5/1/3 4/1/3
f 3/1/4 6/1/4 5/1/4
f 3/1/5 7/1/5 6/1/5
f 3/1/6 1/1/6 7/1/6
f 10/1/7 9/1/7 8/1/7
f 10/1/8 11/1/8 9/1/8
f 10/1/9 12/1/9 11/1/9
f 10/1/10 13/1/10 12/1/10
f 10/1/11 14/1/11 13/1/11
f 10/1/12 8/1/12 14/1/12
f 17/1/13 16/1/13 15/1/13
f 17/1/14 18/1/14 16/1/14
f 17/1/15 19/1/15 18/1/15
f 17/1/16 20/1/16 19/1/16
f 17/1/17 21/1/17 20/1/17
f 17/1/18 15/1/18 21/1/18
f 2/1/27 4/1/27 5/1/27
f 5/1/27 6/1/27 7/1/27
f 9/1/27 11/1/27 12/1/27
f 13/1/27 14/1/27 8/1/27
f 16/1/27 18/1/27 19/1/27
f 20/1/27 21/1/27 15/1/27
f 24/2/19 23/2/19 22/2/19
f 22/2/19 25/2/19 24/2/19
f 27/2/20 26/2/20 23/2/20
f 23/2/20 24/2/20 27/2/20
f 29/2/21 28/2/21 26/2/21
f 26/2/21 27/2/21 29/2/21
f 31/2/22 30/2/22 28/2/22
f 28/2/22 29/2/22 31/2/22
f 33/2/23 32/2/23 30/2/23
f 30/2/23 31/2/23 33/2/23
f 35/2/24 34/2/24 32/2/24
f 32/2/24 33/2/24 35/2/24
f 37/2/25 36/2/25 34/2/25
f 34/2/25 35/2/25 37/2/25
f 25/2/26 22/2/26 36/2/26
f 36/2/26 37/2/26 25/2/26
f 7/1/27 1/1/27 2/1/27
f 2/1/27 5/1/27 7/1/27
f 13/1/27 8/1/27 9/1/27
f 9/1/27 12/1/27 13/1/27
f 20/1/27 15/1/27 16/1/27
f 16/1/27 19/1/27 20/1/27

